<?xml version="1.0" encoding="utf-8"?>
<!-- Generator: Adobe Illustrator 18.0.0, SVG Export Plug-In . SVG Version: 6.00 Build 0)  -->
<!DOCTYPE svg PUBLIC "-//W3C//DTD SVG 1.1//EN" "http://www.w3.org/Graphics/SVG/1.1/DTD/svg11.dtd">
<svg version="1.1" id="Layer_1" xmlns="http://www.w3.org/2000/svg" xmlns:xlink="http://www.w3.org/1999/xlink" x="0px" y="0px"
	 viewBox="0 0 484 460" enable-background="new 0 0 484 460" xml:space="preserve">
<g id="visual">
	<g>
		<g>
			<path fill="#3A3B3B" d="M203.4,0H38.3c-5.1,0-9.2,4.1-9.2,9.2v109.7h183.5V9.2C212.6,4.1,208.5,0,203.4,0z"/>
			<rect id="kepernyoures_6_" x="37.1" y="8.3" fill="#394A56" width="167.4" height="102.7"/>
			<path fill="#CDCCCC" d="M29.1,118.9v11.3c0,5.1,4.1,9.2,9.2,9.2h165.1c5.1,0,9.2-4.1,9.2-9.2v-11.3H29.1z"/>
			<path fill="#4E4E4E" d="M124.3,128.7c0,1.9-1.5,3.4-3.4,3.4c-1.9,0-3.4-1.5-3.4-3.4c0-1.9,1.5-3.4,3.4-3.4
				C122.8,125.3,124.3,126.8,124.3,128.7z"/>
		</g>
		<g>
			<g>
				<g>
					<g>
						<rect x="50.1" y="20.6" fill="#F9CA50" width="20.9" height="3.5"/>
					</g>
				</g>
				<g>
					<g>
						<rect x="60.1" y="31.3" fill="#F3F3F3" width="19" height="3.5"/>
					</g>
				</g>
				<g>
					<g>
						<rect x="86.2" y="31.3" fill="#F3F3F3" width="85.9" height="3.5"/>
					</g>
				</g>
				<g>
					<g>
						<rect x="60.1" y="41.2" fill="#ED5823" width="85.9" height="3.5"/>
					</g>
				</g>
				<g>
					<g>
						<rect x="60.1" y="52" fill="#F3F3F3" width="30" height="3.5"/>
					</g>
				</g>
				<g>
					<g>
						<rect x="97" y="52" fill="#2DBEC4" width="19.5" height="3.5"/>
					</g>
				</g>
			</g>
			<g>
				<g>
					<g>
						<rect x="50.1" y="64" fill="#F9CA50" width="20.9" height="3.5"/>
					</g>
				</g>
				<g>
					<g>
						<rect x="60.1" y="74.7" fill="#F3F3F3" width="19" height="3.5"/>
					</g>
				</g>
				<g>
					<g>
						<rect x="86.2" y="74.7" fill="#F3F3F3" width="85.9" height="3.5"/>
					</g>
				</g>
				<g>
					<g>
						<rect x="60.1" y="84.6" fill="#ED5823" width="85.9" height="3.5"/>
					</g>
				</g>
				<g>
					<g>
						<rect x="60.1" y="95.4" fill="#F3F3F3" width="30" height="3.5"/>
					</g>
				</g>
				<g>
					<g>
						<rect x="97" y="95.4" fill="#2DBEC4" width="19.5" height="3.5"/>
					</g>
				</g>
			</g>
		</g>
	</g>
	<g>
		<g>
			<g>
				<g id="fulek_12_">
					<g>
						<path fill="#F9D19C" d="M413.3,186.3c0,3.4-2.8,6.2-6.2,6.2c-3.4,0-6.2-2.8-6.2-6.2c0-3.4,2.8-6.2,6.2-6.2
							C410.5,180.1,413.3,182.9,413.3,186.3z"/>
					</g>
					<g>
						<path fill="#F9D19C" d="M463.8,186.3c0,3.4-2.8,6.2-6.2,6.2c-3.4,0-6.2-2.8-6.2-6.2c0-3.4,2.8-6.2,6.2-6.2
							C461,180.1,463.8,182.9,463.8,186.3z"/>
					</g>
				</g>
				<g id="arc_26_">
					<path fill="#F9D19C" d="M457.9,190.3c0,14.1-11.4,25.5-25.6,25.5l0,0c-14.1,0-25.6-11.4-25.6-25.5v-18.8
						c0-14.1,11.4-25.5,25.6-25.5l0,0c14.1,0,25.6,11.4,25.6,25.5V190.3z"/>
				</g>
			</g>
			<path fill="#7B4E43" d="M460.8,166c0-3.9-2.8-7.2-6.5-8c-0.2-0.3-0.3-0.6-0.5-0.9c0.2-0.7,0.4-1.5,0.4-2.3c0-4.1-3.3-7.4-7.4-7.4
				c-0.6,0-1.1,0.1-1.6,0.2c-0.6-2.2-2.6-3.9-5-3.9c-1.2,0-2.4,0.4-3.3,1.2c-1.2-2-3.5-3.4-6-3.4c-3.1,0-5.8,2-6.7,4.9
				c-0.3,0.1-0.6,0.2-0.8,0.3c-1-0.5-2.1-0.7-3.2-0.7c-4.1,0-7.4,3.3-7.4,7.4c0,0.4,0,0.9,0.1,1.3c-0.3,0.4-0.6,0.8-0.9,1.2
				c-4.2,1-7.4,4.8-7.4,9.3c0,2.4,0.9,4.5,2.3,6.2v6.1c0,14.1,11.4,25.5,25.6,25.5c14.1,0,25.6-11.4,25.6-25.5v-5.4
				C459.7,170.7,460.8,168.5,460.8,166z"/>
		</g>
		<g>
			<g>
				<g id="labak_10_">
					<path fill="#345365" d="M406.2,297.8v10.7c0,2.8,2.2,5,5,5h47.9c2.8,0,5-2.2,5-5v-10.7H406.2z"/>
					<g>
						<g>
							<path fill="#345365" d="M411.7,366.1c-0.5-4.6-4.4-45,1.8-60.6l10.3,4c-4.4,11.1-2.3,43.8-1.1,55.4L411.7,366.1z"/>
						</g>
						<g>
							<path fill="#675141" d="M423.5,364.3l0.5,7.4l-30.3,0.4c0,0,2.4-6.7,17.4-7.6C417.7,364.2,423.5,364.3,423.5,364.3z"/>
						</g>
					</g>
					<g>
						<g>
							<path fill="#345365" d="M459.2,366.2l-10.9-1.3c1.3-11.5,3.8-43.8-1-55.3l10.2-4.2C464.2,321.6,459.7,361.7,459.2,366.2z"/>
						</g>
						<g>
							<path fill="#675141" d="M447.4,364l-0.5,7.4l30.3,0.4c0,0-2.4-6.7-17.4-7.6C453.2,363.9,447.4,364,447.4,364z"/>
						</g>
					</g>
				</g>
				<path fill="#86ACDB" d="M464.1,297.8v-69.5c0-2.8-2.2-5-5-5h-47.9c-2.8,0-5,2.2-5,5v69.5H464.1z"/>
				<g>
					<g>
						<g>
							<g>
								<path fill="#86ACDB" d="M403.9,264.1c-10.4,0-15.6-5.1-16.9-10.3c-2-7.8,4.1-19.4,22-26.1l3.5,9.4
									c-12.5,4.7-16.4,11.6-15.8,14.3c0.5,1.8,4.3,3.3,10.7,2.5l1.3,9.9C407,264,405.4,264.1,403.9,264.1z"/>
							</g>
						</g>
						<g>
							<g>
								<path fill="#86ACDB" d="M465.5,264.1c-1.5,0-3.1-0.1-4.8-0.3l1.3-9.9c6.4,0.8,10.2-0.6,10.7-2.5c0.7-2.7-3.3-9.6-15.8-14.3
									l3.5-9.4c17.9,6.7,23.9,18.3,22,26.1C481,259,475.9,264.1,465.5,264.1z"/>
							</g>
						</g>
					</g>
				</g>
			</g>
			<g>
				<g id="fülek_10_">
					<ellipse fill="#F9D19C" cx="464.2" cy="183.8" rx="7" ry="7"/>
					<ellipse fill="#F9D19C" cx="407.2" cy="183.8" rx="7" ry="7"/>
				</g>
				<path id="arc_25_" fill="#F9D19C" d="M404.9,188.5c0,17.3,14,31.3,31.3,31.3l0,0c17.3,0,31.3-14,31.3-31.3v-23.1
					c0-17.3-14-31.3-31.3-31.3l0,0c-17.3,0-31.3,14-31.3,31.3V188.5z"/>
				<path fill="#3A3B3B" d="M455.7,133c-54.1-18.7-52.7,15.7-51.2,26.1l0,0v13.3c0,17.4,14.1,31.5,31.5,31.5
					c17.4,0,31.5-14.1,31.5-31.5v-8.9C469.4,155.5,473.6,131.5,455.7,133z"/>
			</g>
		</g>
		<g>
			<rect x="433.2" y="318.5" fill="#A9A8A8" width="4.5" height="51.2"/>
			<path fill="#919191" d="M468.3,324.4c0,3.5-2.9,6.4-6.4,6.4h-52.8c-3.6,0-6.4-2.9-6.4-6.4l0,0c0-3.6,2.9-6.4,6.4-6.4h52.8
				C465.4,317.9,468.3,320.8,468.3,324.4L468.3,324.4z"/>
			<path fill="#3A3B3B" d="M481.8,317c0,4.2-3.4,7.6-7.6,7.6h-77.4c-4.2,0-7.6-3.4-7.6-7.6l0,0c0-4.2,3.4-7.6,7.6-7.6h77.4
				C478.4,309.4,481.8,312.8,481.8,317L481.8,317z"/>
			<ellipse fill="#4E4E4E" cx="435.5" cy="252.9" rx="46.2" ry="24"/>
			<path fill="#A9A8A8" d="M440.4,311.4c0,2.7-2.2,4.9-4.9,4.9l0,0c-2.7,0-4.9-2.2-4.9-4.9v-55.2c0-2.7,2.2-4.9,4.9-4.9l0,0
				c2.7,0,4.9,2.2,4.9,4.9V311.4z"/>
			<g>
				<polygon fill="#A9A8A8" points="484,372.2 435.9,372.2 435.9,360.7 484,365.8 				"/>
				<polygon fill="#A9A8A8" points="387,372.2 435.1,372.2 435.1,360.7 387,365.8 				"/>
			</g>
			<rect x="431.4" y="360.4" fill="#919191" width="8.2" height="14.6"/>
		</g>
	</g>
	<g>
		<g>
			<g>
				<g id="fulek_11_">
					<g>
						<ellipse fill="#F9D19C" cx="20.4" cy="177.6" rx="6.2" ry="6.2"/>
					</g>
					<g>
						<ellipse fill="#F9D19C" cx="70.9" cy="177.6" rx="6.2" ry="6.2"/>
					</g>
				</g>
				<g id="arc_24_">
					<path fill="#F9D19C" d="M71.2,181.6c0,14.1-11.4,25.5-25.6,25.5l0,0c-14.1,0-25.6-11.4-25.6-25.5v-18.8
						c0-14.1,11.4-25.5,25.6-25.5l0,0c14.1,0,25.6,11.4,25.6,25.5V181.6z"/>
				</g>
			</g>
		</g>
		<g>
			<g>
				<g id="labak_9_">
					<path fill="#345365" d="M19.5,289.1v10.7c0,2.8,2.2,5,5,5h47.9c2.8,0,5-2.2,5-5v-10.7H19.5z"/>
					<g>
						<g>
							<path fill="#345365" d="M25,357.4c-0.5-4.6-4.4-45,1.8-60.6l10.2,4c-4.4,11.1-2.3,43.8-1.1,55.4L25,357.4z"/>
						</g>
						<g>
							<path fill="#675141" d="M36.8,355.6l0.5,7.4L7,363.4c0,0,2.4-6.7,17.4-7.6C31,355.5,36.8,355.6,36.8,355.6z"/>
						</g>
					</g>
					<g>
						<g>
							<path fill="#345365" d="M72.5,357.4l-10.9-1.3c1.3-11.5,3.8-43.8-1-55.3l10.2-4.2C77.5,312.9,73,352.9,72.5,357.4z"/>
						</g>
						<g>
							<path fill="#675141" d="M60.7,355.2l-0.5,7.4l30.3,0.4c0,0-2.4-6.7-17.4-7.6C66.5,355.1,60.7,355.2,60.7,355.2z"/>
						</g>
					</g>
				</g>
				<path fill="#F49730" d="M77.4,289.1v-69.5c0-2.8-2.2-5-5-5H24.5c-2.8,0-5,2.2-5,5v69.5H77.4z"/>
				<g>
					<g>
						<g>
							<g>
								<path fill="#F49730" d="M17.2,255.3c-10.4,0-15.6-5.1-16.9-10.3c-2-7.8,4.1-19.4,22-26.1l3.5,9.4
									C13.4,233,9.4,240,10.1,242.6c0.5,1.8,4.3,3.3,10.7,2.5L22,255C20.3,255.2,18.7,255.3,17.2,255.3z"/>
							</g>
						</g>
						<g>
							<g>
								<path fill="#F49730" d="M78.8,255.3c-1.5,0-3.1-0.1-4.8-0.3l1.3-9.9c6.4,0.8,10.2-0.6,10.7-2.5c0.7-2.7-3.3-9.6-15.8-14.3
									l3.5-9.4c17.9,6.7,23.9,18.3,22,26.1C94.3,250.3,89.2,255.3,78.8,255.3z"/>
							</g>
						</g>
					</g>
				</g>
			</g>
			<g>
				<g id="fülek_9_">
					<ellipse fill="#F9D19C" cx="80.4" cy="174.9" rx="7.6" ry="7.6"/>
					<ellipse fill="#F9D19C" cx="18.5" cy="174.9" rx="7.6" ry="7.6"/>
				</g>
				<path id="arc_23_" fill="#F9D19C" d="M18.1,179.8c0,17.3,14,31.3,31.3,31.3l0,0c17.3,0,31.3-14,31.3-31.3v-23.1
					c0-17.3-14-31.3-31.3-31.3l0,0c-17.3,0-31.3,14-31.3,31.3C18.1,156.7,18.1,179.8,18.1,179.8z"/>
				<path fill="#99825A" d="M84.8,148c0-4.9-3.5-9-8.1-9.9c-0.2-0.4-0.4-0.7-0.6-1.1c0.3-0.9,0.4-1.8,0.4-2.8c0-5.1-4.1-9.2-9.2-9.2
					c-0.7,0-1.4,0.1-2.1,0.2c-0.7-2.8-3.2-4.8-6.2-4.8c-1.5,0-2.9,0.5-4.1,1.4c-1.5-2.5-4.3-4.2-7.5-4.2c-3.9,0-7.2,2.5-8.3,6
					c-0.3,0.1-0.7,0.3-1,0.4c-1.2-0.6-2.6-0.9-4-0.9c-5.1,0-9.2,4.1-9.2,9.2c0,0.6,0.1,1.1,0.2,1.6c-0.4,0.5-0.7,1-1.1,1.5
					c-5.3,1.2-9.2,6-9.2,11.6c0,3,1.1,5.7,2.9,7.8v7.6c0,17.6,14.2,31.8,31.8,31.8c17.6,0,31.8-14.2,31.8-31.8v-6.8
					C83.5,153.8,84.8,151.1,84.8,148z"/>
			</g>
		</g>
		<g>
			<rect x="46.5" y="309.7" fill="#A9A8A8" width="4.5" height="51.2"/>
			<path fill="#919191" d="M81.6,315.6c0,3.5-2.9,6.4-6.4,6.4H22.4c-3.6,0-6.4-2.9-6.4-6.4l0,0c0-3.6,2.9-6.4,6.4-6.4h52.8
				C78.7,309.2,81.6,312.1,81.6,315.6L81.6,315.6z"/>
			<path fill="#3A3B3B" d="M95.1,308.3c0,4.2-3.4,7.6-7.6,7.6H10.1c-4.2,0-7.6-3.4-7.6-7.6l0,0c0-4.2,3.4-7.6,7.6-7.6h77.4
				C91.7,300.7,95.1,304.1,95.1,308.3L95.1,308.3z"/>
			<ellipse fill="#4E4E4E" cx="48.8" cy="244.2" rx="46.2" ry="24"/>
			<path fill="#A9A8A8" d="M53.7,302.6c0,2.7-2.2,4.9-4.9,4.9l0,0c-2.7,0-4.9-2.2-4.9-4.9v-55.2c0-2.7,2.2-4.9,4.9-4.9l0,0
				c2.7,0,4.9,2.2,4.9,4.9V302.6z"/>
			<g>
				<polygon fill="#A9A8A8" points="97.3,363.5 49.2,363.5 49.2,351.9 97.3,357 				"/>
				<polygon fill="#A9A8A8" points="0.3,363.5 48.4,363.5 48.4,351.9 0.3,357 				"/>
			</g>
			<rect x="44.7" y="351.7" fill="#919191" width="8.2" height="14.6"/>
		</g>
	</g>
	<g>
		<g>
			<g>
				<g id="fulek_10_">
					<g>
						<path fill="#F9D19C" d="M145.4,269.9c0,3.4-2.8,6.2-6.2,6.2c-3.4,0-6.2-2.8-6.2-6.2c0-3.4,2.8-6.2,6.2-6.2
							C142.6,263.7,145.4,266.5,145.4,269.9z"/>
					</g>
					<g>
						<path fill="#F9D19C" d="M195.9,269.9c0,3.4-2.8,6.2-6.2,6.2s-6.2-2.8-6.2-6.2c0-3.4,2.8-6.2,6.2-6.2S195.9,266.5,195.9,269.9z
							"/>
					</g>
				</g>
				<g id="arc_22_">
					<path fill="#F9D19C" d="M190,273.9c0,14.1-11.4,25.5-25.6,25.5l0,0c-14.1,0-25.6-11.4-25.6-25.5v-18.8
						c0-14.1,11.4-25.5,25.6-25.5l0,0c14.1,0,25.6,11.4,25.6,25.5L190,273.9L190,273.9z"/>
				</g>
			</g>
			<path fill="#7B4E43" d="M192.9,249.6c0-3.9-2.8-7.2-6.5-8c-0.2-0.3-0.3-0.6-0.5-0.9c0.2-0.7,0.4-1.5,0.4-2.3
				c0-4.1-3.3-7.4-7.4-7.4c-0.6,0-1.1,0.1-1.6,0.2c-0.6-2.2-2.6-3.9-5-3.9c-1.2,0-2.4,0.4-3.3,1.2c-1.2-2-3.5-3.4-6-3.4
				c-3.1,0-5.8,2-6.7,4.9c-0.3,0.1-0.6,0.2-0.8,0.3c-1-0.5-2.1-0.7-3.2-0.7c-4.1,0-7.4,3.3-7.4,7.4c0,0.4,0,0.9,0.1,1.3
				c-0.3,0.4-0.6,0.8-0.9,1.2c-4.2,1-7.4,4.8-7.4,9.3c0,2.4,0.9,4.5,2.3,6.2v6.1c0,14.1,11.4,25.5,25.6,25.5
				c14.1,0,25.6-11.4,25.6-25.5v-5.4C191.8,254.3,192.9,252.1,192.9,249.6z"/>
		</g>
		<g>
			<g id="labak_8_">
				<path fill="#345365" d="M138.3,381.5v10.7c0,2.8,2.2,5,5,5h47.9c2.8,0,5-2.2,5-5v-10.7H138.3z"/>
				<g>
					<path fill="none" stroke="#345365" stroke-width="11" stroke-miterlimit="10" d="M150.8,391.1c-5.9,14.8-1.4,58-1.4,58"/>
					<path fill="#675141" d="M155.6,447.9l0.5,7.4l-30.3,0.4c0,0,2.4-6.7,17.4-7.6C149.8,447.8,155.6,447.9,155.6,447.9z"/>
				</g>
				<g>
					<path fill="none" stroke="#345365" stroke-width="11" stroke-miterlimit="10" d="M184.4,391.1c6.4,15.3,1.4,58,1.4,58"/>
					<path fill="#675141" d="M179.5,447.6L179,455l30.3,0.4c0,0-2.4-6.7-17.4-7.6C185.3,447.5,179.5,447.6,179.5,447.6z"/>
				</g>
			</g>
			<path fill="#D64147" d="M196.2,381.5V312c0-2.8-2.2-5-5-5h-47.9c-2.8,0-5,2.2-5,5v69.5H196.2z"/>
			<g>
				<g id="fülek_8_">
					<ellipse fill="#F9D19C" cx="199.2" cy="267.3" rx="7.6" ry="7.6"/>
					<ellipse fill="#F9D19C" cx="137.3" cy="267.3" rx="7.6" ry="7.6"/>
				</g>
				<path id="arc_21_" fill="#F9D19C" d="M137,272.1c0,17.3,14,31.3,31.3,31.3l0,0c17.3,0,31.3-14,31.3-31.3v-23.1
					c0-17.3-14-31.3-31.3-31.3l0,0c-17.3,0-31.3,14-31.3,31.3V272.1z"/>
				<path fill="#3A3B3B" d="M202.5,225.1c-2,3.8-3.6,4.3-3.6,4.3s-2-15.1-5.6-20.2c-2.9,11.9-4.5,13.3-4.5,13.3s-1.1-19.8-6.9-20.5
					c-7.9,11.2-22.4,4.7-28.1,14.8c-1.1-2.5-1.4-7.9-1.4-7.9s-9.4,6.8-10.5,13c-2.5-0.4-2.9-2.2-2.5-5.8c-8.7,6.5-2.8,40.3-2.8,40.3
					c0,17.4,14.1,31.4,31.5,31.4c17.4,0,31.5-14.1,31.5-31.4C200.3,252.2,204.5,227.4,202.5,225.1z"/>
			</g>
			<g>
				<g>
					<path fill="none" stroke="#D64147" stroke-width="10" stroke-miterlimit="10" d="M142.9,316c-24.8,9.3-25.2,29.3-2.7,26.4"/>
				</g>
				<g>
					<path fill="none" stroke="#D64147" stroke-width="10" stroke-miterlimit="10" d="M190.7,316c24.8,9.3,25.2,29.3,2.7,26.4"/>
				</g>
			</g>
		</g>
		<g>
			<rect x="165.3" y="402.1" fill="#A9A8A8" width="4.5" height="51.2"/>
			<path fill="#919191" d="M200.4,408c0,3.5-2.9,6.4-6.4,6.4h-52.8c-3.6,0-6.4-2.9-6.4-6.4l0,0c0-3.6,2.9-6.4,6.4-6.4H194
				C197.5,401.5,200.4,404.4,200.4,408L200.4,408z"/>
			<path fill="#3A3B3B" d="M213.9,400.6c0,4.2-3.4,7.6-7.6,7.6h-77.4c-4.2,0-7.6-3.4-7.6-7.6l0,0c0-4.2,3.4-7.6,7.6-7.6h77.4
				C210.5,393,213.9,396.4,213.9,400.6L213.9,400.6z"/>
			<ellipse fill="#4E4E4E" cx="167.6" cy="336.5" rx="46.2" ry="24"/>
			<path fill="#A9A8A8" d="M172.5,395c0,2.7-2.2,4.9-4.9,4.9l0,0c-2.7,0-4.9-2.2-4.9-4.9v-55.2c0-2.7,2.2-4.9,4.9-4.9l0,0
				c2.7,0,4.9,2.2,4.9,4.9V395z"/>
			<g>
				<polygon fill="#A9A8A8" points="216.1,455.9 168,455.9 168,444.3 216.1,449.4 				"/>
				<polygon fill="#A9A8A8" points="119.1,455.9 167.2,455.9 167.2,444.3 119.1,449.4 				"/>
			</g>
			<rect x="163.5" y="444.1" fill="#919191" width="8.2" height="14.6"/>
		</g>
	</g>
	<g>
		<g id="kezek_1_">
			<g>
				<path fill="none" stroke="#F9D19C" stroke-width="13" stroke-linecap="round" stroke-miterlimit="10" d="M187.3,107.5
					c4.5,3.7,7.5,5.6,7.5,5.6"/>
				<path fill="none" stroke="#A2A036" stroke-width="13" stroke-miterlimit="10" d="M260.8,109.7c-20.5,28.2-41.7,21.4-66.8,3.1"/>
			</g>
			<g>
				<path fill="none" stroke="#F9D19C" stroke-width="13" stroke-linecap="round" stroke-miterlimit="10" d="M329.9,191.9
					c-0.8,6.3-1.7,10.1-1.7,10.1"/>
				<path fill="none" stroke="#A2A036" stroke-width="13" stroke-miterlimit="10" d="M313.3,111.8c20.1,27.6,18.8,63,16.7,80.1"/>
			</g>
		</g>
		<path fill="#5C4D3D" d="M256,179.9v11.5c0,3,2.4,5.4,5.4,5.4h51.3c3,0,5.4-2.4,5.4-5.4v-11.5H256z"/>
		<g>
			<path fill="none" stroke="#5C4D3D" stroke-width="15" stroke-miterlimit="10" d="M269.3,190.3c-6.3,28.7-1.5,112.4-1.5,112.4"/>
			<path fill="#3A3B3B" d="M274.5,302l0.6,7.9l-32.5,0.4c0,0,2.6-7.1,18.7-8.1C268.2,301.9,274.5,302,274.5,302z"/>
		</g>
		<g>
			<path fill="none" stroke="#5C4D3D" stroke-width="15" stroke-miterlimit="10" d="M305.3,190.3c6.9,29.7,1.5,112.4,1.5,112.4"/>
			<path fill="#3A3B3B" d="M300.1,301.7l-0.6,7.9L332,310c0,0-2.6-7.1-18.7-8.1C306.3,301.5,300.1,301.7,300.1,301.7z"/>
		</g>
		<g id="fulek_8_">
			<ellipse fill="#F9D19C" cx="254.3" cy="54.2" rx="8.2" ry="8.2"/>
			<ellipse fill="#F9D19C" cx="320.8" cy="54.2" rx="8.2" ry="8.2"/>
		</g>
		<path id="arc_20_" fill="#F9D19C" d="M321.2,59.5c0,18.6-15.1,33.6-33.6,33.6l0,0c-18.6,0-33.6-15-33.6-33.6V34.7
			c0-18.6,15.1-33.6,33.6-33.6l0,0c18.6,0,33.6,15,33.6,33.6V59.5z"/>
		<g id="szemek_1_">
			<g id="szemek_2_">
				<circle fill="#333333" cx="270.3" cy="51.8" r="2.6"/>
				<circle fill="#333333" cx="304.8" cy="51.8" r="2.6"/>
			</g>
			<g id="szemekcsukva_1_" display="none">
				<ellipse display="inline" fill="#333333" cx="270.3" cy="51.8" rx="2.6" ry="1"/>
				<ellipse display="inline" fill="#333333" cx="304.8" cy="51.8" rx="2.6" ry="1"/>
			</g>
		</g>
		<g id="szaj_1_">
			<g>
				<path id="szaj_x29__9_" fill="#E1A87F" d="M295.3,77.7c-1,3.3-4.1,5.6-7.7,5.6c-3.6,0-6.7-2.4-7.7-5.7"/>
				<circle id="szaj_11_" display="none" fill="#E1A87F" cx="291.8" cy="81.3" r="2.8"/>
				<path id="szaj_x28__9_" display="none" fill="#E1A87F" d="M279.9,83.2c1-3.3,4.1-5.6,7.7-5.6c3.6,0,6.7,2.4,7.7,5.7"/>
			</g>
		</g>
		<path fill="#E1A87F" d="M290.1,61.8c0,1.4-1.1,2.5-2.5,2.5l0,0c-1.4,0-2.5-1.1-2.5-2.5v-7.7c0-1.4,1.1-2.5,2.5-2.5l0,0
			c1.4,0,2.5,1.1,2.5,2.5V61.8z"/>
		<path fill="#A2A036" d="M318,179.9v-74.5c0-3-2.4-5.4-5.4-5.4h-51.3c-3,0-5.4,2.4-5.4,5.4v74.5H318z"/>
		<g>
			<g>
				<g>
					<path fill="#F4C145" d="M277.7,100c-0.3,0.9-0.5,1.9-0.5,3c0,5.4,4.4,9.7,9.7,9.7s9.7-4.3,9.7-9.7c0-1-0.2-2-0.5-3H277.7z"/>
				</g>
				<g>
					<polygon fill="#F4C145" points="287,168.7 277.5,159.2 287,101.6 296.6,159.2 					"/>
				</g>
			</g>
		</g>
		<g id="gallér_1_">
			<polygon fill="#FFFFFF" points="264.3,100 275.6,111.3 286.9,100 			"/>
			<polygon fill="#FFFFFF" points="287.5,100 298.8,111.3 310.2,100 			"/>
		</g>
		<g>
			<path fill="#3A3B3B" d="M281.8,46.1c0.3,1.1,0.5,2.2,0.5,3.4c0,6.8-5.5,12.3-12.3,12.3c-6.8,0-12.3-5.5-12.3-12.3
				c0-1.2,0.2-2.3,0.5-3.4h-3.6c-0.2,1.1-0.4,2.2-0.4,3.4c0,8.7,7.1,15.7,15.8,15.7s15.8-7.1,15.8-15.7c0-1.2-0.1-2.3-0.4-3.4
				C285.4,46.1,281.8,46.1,281.8,46.1z"/>
			<path fill="#3A3B3B" d="M317.1,46.1c0.3,1.1,0.5,2.2,0.5,3.4c0,6.8-5.5,12.3-12.3,12.3s-12.3-5.5-12.3-12.3
				c0-1.2,0.2-2.3,0.5-3.4h-3.6c-0.2,1.1-0.4,2.2-0.4,3.4c0,8.7,7.1,15.7,15.8,15.7c8.7,0,15.8-7.1,15.8-15.7c0-1.2-0.1-2.3-0.4-3.4
				C320.6,46.1,317.1,46.1,317.1,46.1z"/>
			<rect x="252.5" y="43" fill="#3A3B3B" width="69.9" height="3.3"/>
		</g>
		<path fill="#61473E" d="M295.4,33.5c15.9-1.5,29.5-10.4,29.5-10.4l-6.8-5.3l4-2.3c0,0-3.3-2.3-7.2-5.8c-0.1-0.1-0.3-0.2-0.4-0.2
			c-5.1-5.4-15.2-9.1-26.9-9.1c-16.4,0-29.8,7.3-30.3,16.4c-3.6,0.4-6.4,5.7-6.4,12c0,6.7,3.1,12.1,6.8,12.1c3.8,0,6.8-5.4,6.8-12.1
			c0-0.2,0-0.3,0-0.5c5.6,3.6,13.8,5.9,23,5.9C290.3,34.1,292.9,33.9,295.4,33.5z"/>
	</g>
	<g>
		<g>
			<g id="fulek_7_">
				<g>
					<path fill="#F9D19C" d="M294.3,271.3c0,3.4-2.8,6.2-6.2,6.2c-3.4,0-6.2-2.8-6.2-6.2c0-3.4,2.8-6.2,6.2-6.2
						C291.6,265.1,294.3,267.9,294.3,271.3z"/>
				</g>
				<g>
					<path fill="#F9D19C" d="M344.9,271.3c0,3.4-2.8,6.2-6.2,6.2c-3.4,0-6.2-2.8-6.2-6.2c0-3.4,2.8-6.2,6.2-6.2
						S344.9,267.9,344.9,271.3z"/>
				</g>
			</g>
			<g id="arc_17_">
				<path fill="#F9D19C" d="M338.9,275.3c0,14.1-11.4,25.5-25.6,25.5l0,0c-14.1,0-25.6-11.4-25.6-25.5v-18.8
					c0-14.1,11.4-25.5,25.6-25.5l0,0c14.1,0,25.6,11.4,25.6,25.5V275.3z"/>
			</g>
		</g>
		<path fill="#7B4E43" d="M341.8,251c0-3.9-2.8-7.2-6.5-8c-0.2-0.3-0.3-0.6-0.5-0.9c0.2-0.7,0.4-1.5,0.4-2.3c0-4.1-3.3-7.4-7.4-7.4
			c-0.6,0-1.1,0.1-1.6,0.2c-0.6-2.2-2.6-3.9-5-3.9c-1.2,0-2.4,0.4-3.3,1.2c-1.2-2-3.5-3.4-6-3.4c-3.1,0-5.8,2-6.7,4.9
			c-0.3,0.1-0.6,0.2-0.8,0.3c-1-0.5-2.1-0.7-3.2-0.7c-4.1,0-7.4,3.3-7.4,7.4c0,0.4,0,0.9,0.1,1.3c-0.3,0.4-0.6,0.8-0.9,1.2
			c-4.2,1-7.4,4.8-7.4,9.3c0,2.4,0.9,4.5,2.3,6.2v6.1c0,14.1,11.4,25.5,25.6,25.5c14.1,0,25.6-11.4,25.6-25.5v-5.4
			C340.7,255.6,341.8,253.4,341.8,251z"/>
	</g>
	<g id="labak_7_">
		<path fill="#7A5837" d="M287.3,382.8v10.7c0,2.8,2.2,5,5,5h47.9c2.8,0,5-2.2,5-5v-10.7H287.3z"/>
		<g>
			<path fill="none" stroke="#7A5837" stroke-width="11" stroke-miterlimit="10" d="M299.7,392.5c-5.9,14.8-1.4,58-1.4,58"/>
			<path fill="#675141" d="M304.6,449.2l0.5,7.4l-30.3,0.4c0,0,2.4-6.7,17.4-7.6C298.7,449.1,304.6,449.2,304.6,449.2z"/>
		</g>
		<g>
			<path fill="none" stroke="#7A5837" stroke-width="11" stroke-miterlimit="10" d="M333.4,392.5c6.4,15.3,1.4,58,1.4,58"/>
			<path fill="#675141" d="M328.4,448.9l-0.5,7.4l30.3,0.4c0,0-2.4-6.7-17.4-7.6C334.3,448.8,328.4,448.9,328.4,448.9z"/>
		</g>
	</g>
	<path fill="#5A894D" d="M345.2,382.8v-69.5c0-2.8-2.2-5-5-5h-47.9c-2.8,0-5,2.2-5,5v69.5H345.2z"/>
	<g id="fülek_7_">
		<ellipse fill="#F9D19C" cx="345.2" cy="268.7" rx="7" ry="7"/>
		<ellipse fill="#F9D19C" cx="288.2" cy="268.7" rx="7" ry="7"/>
	</g>
	<path id="arc_15_" fill="#F9D19C" d="M285.9,273.5c0,17.3,14,31.3,31.3,31.3l0,0c17.3,0,31.3-14,31.3-31.3v-23.1
		c0-17.3-14-31.3-31.3-31.3l0,0c-17.3,0-31.3,14-31.3,31.3V273.5z"/>
	<path id="arc_1_" fill="#F4C145" d="M285.9,263.5c0,17.3,14,31.3,31.3,31.3l0,0c17.3,0,31.3-14,31.3-31.3v-13.1
		c0-17.3-14-31.3-31.3-31.3l0,0c-17.3,0-31.3,14-31.3,31.3V263.5z"/>
	<g>
		<g>
			<g>
				<path fill="none" stroke="#5A894D" stroke-width="10" stroke-miterlimit="10" d="M291.9,317.3c-24.8,9.3-25.2,29.3-2.7,26.4"/>
			</g>
			<g>
				<path fill="none" stroke="#5A894D" stroke-width="10" stroke-miterlimit="10" d="M339.7,317.3c24.8,9.3,25.2,29.3,2.7,26.4"/>
			</g>
		</g>
	</g>
	<g>
		<rect x="314.3" y="403.4" fill="#A9A8A8" width="4.5" height="51.2"/>
		<path fill="#919191" d="M349.4,409.3c0,3.5-2.9,6.4-6.4,6.4h-52.8c-3.6,0-6.4-2.9-6.4-6.4l0,0c0-3.6,2.9-6.4,6.4-6.4h52.8
			C346.5,402.9,349.4,405.8,349.4,409.3L349.4,409.3z"/>
		<path fill="#3A3B3B" d="M362.9,402c0,4.2-3.4,7.6-7.6,7.6h-77.4c-4.2,0-7.6-3.4-7.6-7.6l0,0c0-4.2,3.4-7.6,7.6-7.6h77.4
			C359.5,394.3,362.9,397.8,362.9,402L362.9,402z"/>
		<ellipse fill="#4E4E4E" cx="316.5" cy="337.9" rx="46.2" ry="24"/>
		<path fill="#A9A8A8" d="M321.5,396.3c0,2.7-2.2,4.9-4.9,4.9l0,0c-2.7,0-4.9-2.2-4.9-4.9v-55.2c0-2.7,2.2-4.9,4.9-4.9l0,0
			c2.7,0,4.9,2.2,4.9,4.9V396.3z"/>
		<g>
			<polygon fill="#A9A8A8" points="365,457.2 316.9,457.2 316.9,445.6 365,450.7 			"/>
			<polygon fill="#A9A8A8" points="268,457.2 316.1,457.2 316.1,445.6 268,450.7 			"/>
		</g>
		<rect x="312.4" y="445.4" fill="#919191" width="8.2" height="14.6"/>
	</g>
	<path fill="#F4C145" d="M314.9,219.2c-29.4,0-32,36.5-30.7,48.3c3.2,28.8,20,38.2,15.3,44.2s-20.8,10.3-19.5,23.6
		c2,20.2,36.3,20.9,36.1,32.5c3-2.9,8.9-7.2,8.4-20.7s-21.8-21.4-19-32.9s42.5-9.6,44-48.3C350.3,256.2,350.3,218.7,314.9,219.2z"/>
	<path fill="#F49730" d="M290.8,303.7c2.2,0,11.2,5,11.2,5l4.7,0.7c0,0,15.6-1.5,13.4,1.4s-2.3,4.2-2.9,7.1s-11.8-5.9-11.8-5.9
		l-6.3-1.5c0,0-12,3.3-13.2,1.5C284.6,310.3,288.6,303.6,290.8,303.7z"/>
	<ellipse fill="#D27A28" cx="303.7" cy="310.5" rx="5.7" ry="3.4"/>
</g>
<g id="gears">
	<path id="gear8" fill="#756146" d="M68.7,161.9c0-0.2-0.2-0.3-0.4-0.3l-1.7,0.2c-0.2-0.7-0.6-1.3-1-1.8l1-1.3
		c0.1-0.1,0.1-0.3-0.1-0.5L65,157c-0.1-0.1-0.3-0.1-0.5,0.1l-1,1.3c-0.6-0.3-1.3-0.5-2.1-0.6l-0.2-1.7c0-0.2-0.2-0.3-0.4-0.3l-2,0.3
		c-0.2,0-0.3,0.2-0.3,0.4l0.2,1.7c-0.7,0.2-1.3,0.6-1.9,1.1l-1.4-1.1c-0.1-0.1-0.3-0.1-0.5,0.1l-1.2,1.6c-0.1,0.1-0.1,0.3,0.1,0.5
		l1.4,1.1c-0.3,0.6-0.5,1.3-0.5,2l-1.8,0.2c-0.2,0-0.3,0.2-0.3,0.4l0.3,2c0,0.2,0.2,0.3,0.4,0.3l1.8-0.2c0.2,0.7,0.6,1.3,1.1,1.9
		l-1.1,1.4c-0.1,0.1-0.1,0.3,0.1,0.5l1.6,1.2c0.1,0.1,0.3,0.1,0.5-0.1l1.1-1.4c0.6,0.3,1.3,0.5,2,0.6l0.2,1.7c0,0.2,0.2,0.3,0.4,0.3
		l2-0.3c0.2,0,0.3-0.2,0.3-0.4l-0.2-1.7c0.7-0.2,1.3-0.6,1.8-1l1.4,1c0.1,0.1,0.3,0.1,0.5-0.1l1.2-1.6c0.1-0.1,0.1-0.3-0.1-0.5
		l-1.3-1c0.3-0.6,0.5-1.3,0.6-2.1l1.7-0.2c0.2,0,0.3-0.2,0.3-0.4L68.7,161.9z M61.2,166.9c-1.6,0.2-3.2-1-3.4-2.6
		c-0.2-1.6,1-3.1,2.6-3.4c1.6-0.2,3.2,1,3.4,2.6C64,165.2,62.9,166.7,61.2,166.9z	">
<animateTransform  type="rotate" fill="remove" accumulate="none" calcMode="linear" attributeName="transform" additive="replace" to="0 60.855 163.938" dur="5s" restart="always" from="360 60.855 163.938" repeatCount="indefinite">
			</animateTransform>
	</path>
	<path id="gear7" fill="#756146" d="M57.9,152.1l-2.6-1.1c0.2-1.2,0.3-2.4,0.1-3.7l2.7-1.1c0.3-0.1,0.4-0.4,0.3-0.7l-1.3-3.2
		c-0.1-0.3-0.4-0.4-0.7-0.3l-2.7,1.1c-0.7-1-1.5-1.9-2.5-2.6l1.1-2.7c0.1-0.3,0-0.6-0.3-0.7l-3.2-1.4c-0.3-0.1-0.6,0-0.7,0.3
		l-1.1,2.6c-1.2-0.2-2.4-0.3-3.6-0.1l-1.1-2.7c-0.1-0.3-0.4-0.4-0.7-0.3l-3.2,1.3c-0.3,0.1-0.4,0.4-0.3,0.7l1.1,2.7
		c-1,0.7-1.9,1.6-2.6,2.6l-2.8-1.2c-0.3-0.1-0.6,0-0.7,0.3l-1.4,3.2c-0.1,0.3,0,0.6,0.3,0.7l2.8,1.2c-0.2,1.1-0.2,2.3,0,3.5
		l-2.8,1.1c-0.3,0.1-0.4,0.4-0.3,0.7l1.3,3.2c0.1,0.3,0.4,0.4,0.7,0.3l2.8-1.1c0.7,1,1.6,1.9,2.5,2.6l-1.2,2.8
		c-0.1,0.3,0,0.6,0.3,0.7l3.2,1.4c0.3,0.1,0.6,0,0.7-0.3l1.2-2.8c1.2,0.2,2.4,0.2,3.6,0l1.1,2.8c0.1,0.3,0.4,0.4,0.7,0.3l3.2-1.3
		c0.3-0.1,0.4-0.4,0.3-0.7l-1.1-2.7c1-0.7,1.8-1.5,2.5-2.5l2.7,1.1c0.3,0.1,0.6,0,0.7-0.3l1.4-3.2C58.3,152.5,58.1,152.2,57.9,152.1
		z M46.8,153.7c-2.6,1-5.6-0.2-6.6-2.9c-1-2.6,0.2-5.6,2.9-6.6c2.6-1,5.6,0.2,6.6,2.9C50.7,149.7,49.4,152.7,46.8,153.7z	">
<animateTransform  type="rotate" fill="remove" accumulate="none" calcMode="linear" attributeName="transform" additive="replace" to="360 44.863 148.925" dur="5s" restart="always" from="0 44.863 148.925" repeatCount="indefinite">
			</animateTransform>
	</path>
	<path id="gear6" fill="#676767" d="M454.7,173.4c0-0.2-0.2-0.3-0.4-0.3l-1.7,0.2c-0.2-0.7-0.6-1.3-1-1.8l1-1.3
		c0.1-0.1,0.1-0.3-0.1-0.5l-1.6-1.2c-0.1-0.1-0.3-0.1-0.5,0.1l-1,1.3c-0.6-0.3-1.3-0.5-2.1-0.6l-0.2-1.7c0-0.2-0.2-0.3-0.4-0.3
		l-2,0.3c-0.2,0-0.3,0.2-0.3,0.4l0.2,1.7c-0.7,0.2-1.3,0.6-1.9,1.1l-1.4-1.1c-0.1-0.1-0.3-0.1-0.5,0.1l-1.2,1.6
		c-0.1,0.1-0.1,0.3,0.1,0.5l1.4,1.1c-0.3,0.6-0.5,1.3-0.5,2l-1.8,0.2c-0.2,0-0.3,0.2-0.3,0.4l0.3,2c0,0.2,0.2,0.3,0.4,0.3l1.8-0.2
		c0.2,0.7,0.6,1.3,1.1,1.9l-1.1,1.4c-0.1,0.1-0.1,0.3,0.1,0.5l1.6,1.2c0.1,0.1,0.3,0.1,0.5-0.1l1.1-1.4c0.6,0.3,1.3,0.5,2,0.6
		l0.2,1.7c0,0.2,0.2,0.3,0.4,0.3l2-0.3c0.2,0,0.3-0.2,0.3-0.4l-0.2-1.7c0.7-0.2,1.3-0.6,1.8-1l1.4,1c0.1,0.1,0.3,0.1,0.5-0.1
		l1.2-1.6c0.1-0.1,0.1-0.3-0.1-0.5l-1.3-1c0.3-0.6,0.5-1.3,0.6-2.1l1.7-0.2c0.2,0,0.3-0.2,0.3-0.4L454.7,173.4z M447.2,178.4
		c-1.6,0.2-3.2-1-3.4-2.6c-0.2-1.6,1-3.1,2.6-3.4c1.6-0.2,3.2,1,3.4,2.6C450,176.7,448.8,178.2,447.2,178.4z	">
<animateTransform  type="rotate" fill="remove" accumulate="none" calcMode="linear" attributeName="transform" additive="replace" to="0 446.823 175.421" dur="5s" restart="always" from="360 446.823 175.421" repeatCount="indefinite">
			</animateTransform>
	</path>
	<path id="gear5" fill="#676767" d="M443.8,163.6l-2.6-1.1c0.2-1.2,0.3-2.4,0.1-3.7l2.7-1.1c0.3-0.1,0.4-0.4,0.3-0.7l-1.3-3.2
		c-0.1-0.3-0.4-0.4-0.7-0.3l-2.7,1.1c-0.7-1-1.5-1.9-2.5-2.6l1.1-2.7c0.1-0.3,0-0.6-0.3-0.7l-3.2-1.4c-0.3-0.1-0.6,0-0.7,0.3
		l-1.1,2.7c-1.2-0.2-2.4-0.3-3.6-0.1l-1.1-2.7c-0.1-0.3-0.4-0.4-0.7-0.3l-3.2,1.3c-0.3,0.1-0.4,0.4-0.3,0.7l1.1,2.7
		c-1,0.7-1.9,1.6-2.6,2.6l-2.8-1.2c-0.3-0.1-0.6,0-0.7,0.3l-1.4,3.2c-0.1,0.3,0,0.6,0.3,0.7l2.8,1.2c-0.2,1.1-0.2,2.3,0,3.5
		l-2.8,1.1c-0.3,0.1-0.4,0.4-0.3,0.7l1.3,3.2c0.1,0.3,0.4,0.4,0.7,0.3l2.8-1.1c0.7,1,1.6,1.9,2.5,2.6l-1.2,2.8
		c-0.1,0.3,0,0.6,0.3,0.7l3.2,1.4c0.3,0.1,0.6,0,0.7-0.3l1.2-2.8c1.2,0.2,2.4,0.2,3.6,0l1.1,2.8c0.1,0.3,0.4,0.4,0.7,0.3l3.2-1.3
		c0.3-0.1,0.4-0.4,0.3-0.7l-1.1-2.7c1-0.7,1.8-1.5,2.5-2.5l2.7,1.1c0.3,0.1,0.6,0,0.7-0.3l1.4-3.2
		C444.2,164,444.1,163.7,443.8,163.6z M432.7,165.2c-2.6,1-5.6-0.2-6.6-2.9c-1-2.6,0.2-5.6,2.9-6.6c2.6-1,5.6,0.2,6.6,2.9
		C436.6,161.2,435.3,164.1,432.7,165.2z	">
<animateTransform  type="rotate" fill="remove" accumulate="none" calcMode="linear" attributeName="transform" additive="replace" to="360 430.832 160.408" dur="5s" restart="always" from="0 430.832 160.408" repeatCount="indefinite">
			</animateTransform>
	</path>
	<path id="gear4" fill="#BE9337" d="M335.3,270.6c0-0.2-0.2-0.3-0.4-0.3l-1.7,0.2c-0.2-0.7-0.6-1.3-1-1.8l1-1.3
		c0.1-0.1,0.1-0.3-0.1-0.5l-1.6-1.2c-0.1-0.1-0.3-0.1-0.5,0.1l-1,1.3c-0.6-0.3-1.3-0.5-2.1-0.6l-0.2-1.7c0-0.2-0.2-0.3-0.4-0.3
		l-2,0.3c-0.2,0-0.3,0.2-0.3,0.4l0.2,1.7c-0.7,0.2-1.3,0.6-1.9,1.1l-1.4-1.1c-0.1-0.1-0.3-0.1-0.5,0.1l-1.2,1.6
		c-0.1,0.1-0.1,0.3,0.1,0.5l1.4,1.1c-0.3,0.6-0.5,1.3-0.5,2l-1.8,0.2c-0.2,0-0.3,0.2-0.3,0.4l0.3,2c0,0.2,0.2,0.3,0.4,0.3l1.8-0.2
		c0.2,0.7,0.6,1.3,1.1,1.9l-1.1,1.4c-0.1,0.1-0.1,0.3,0.1,0.5l1.6,1.2c0.1,0.1,0.3,0.1,0.5-0.1l1.1-1.4c0.6,0.3,1.3,0.5,2,0.6
		l0.2,1.7c0,0.2,0.2,0.3,0.4,0.3l2-0.3c0.2,0,0.3-0.2,0.3-0.4l-0.2-1.7c0.7-0.2,1.3-0.6,1.8-1l1.4,1c0.1,0.1,0.3,0.1,0.5-0.1
		l1.2-1.6c0.1-0.1,0.1-0.3-0.1-0.5l-1.3-1c0.3-0.6,0.5-1.3,0.6-2.1l1.7-0.2c0.2,0,0.3-0.2,0.3-0.4L335.3,270.6z M327.8,275.5
		c-1.6,0.2-3.2-1-3.4-2.6c-0.2-1.6,1-3.1,2.6-3.4c1.6-0.2,3.2,1,3.4,2.6C330.6,273.8,329.4,275.3,327.8,275.5z	">
<animateTransform  type="rotate" fill="remove" accumulate="none" calcMode="linear" attributeName="transform" additive="replace" to="0 327.385 272.563" dur="5s" restart="always" from="360 327.385 272.563" repeatCount="indefinite">
			</animateTransform>
	</path>
	<path id="gear3" fill="#BE9337" d="M324.4,260.7l-2.6-1.1c0.2-1.2,0.3-2.4,0.1-3.7l2.7-1.1c0.3-0.1,0.4-0.4,0.3-0.7l-1.3-3.2
		c-0.1-0.3-0.4-0.4-0.7-0.3l-2.7,1.1c-0.7-1-1.5-1.9-2.5-2.6l1.1-2.7c0.1-0.3,0-0.6-0.3-0.7l-3.2-1.4c-0.3-0.1-0.6,0-0.7,0.3
		l-1.1,2.7c-1.2-0.2-2.4-0.3-3.6-0.1l-1.1-2.7c-0.1-0.3-0.4-0.4-0.7-0.3l-3.2,1.3c-0.3,0.1-0.4,0.4-0.3,0.7l1.1,2.7
		c-1,0.7-1.9,1.6-2.6,2.6l-2.8-1.2c-0.3-0.1-0.6,0-0.7,0.3l-1.4,3.2c-0.1,0.3,0,0.6,0.3,0.7l2.8,1.2c-0.2,1.1-0.2,2.3,0,3.5
		l-2.8,1.1c-0.3,0.1-0.4,0.4-0.3,0.7l1.3,3.2c0.1,0.3,0.4,0.4,0.7,0.3l2.8-1.1c0.7,1,1.6,1.9,2.5,2.6l-1.2,2.8
		c-0.1,0.3,0,0.6,0.3,0.7l3.2,1.4c0.3,0.1,0.6,0,0.7-0.3l1.2-2.8c1.2,0.2,2.4,0.2,3.6,0l1.1,2.8c0.1,0.3,0.4,0.4,0.7,0.3l3.2-1.3
		c0.3-0.1,0.4-0.4,0.3-0.7l-1.1-2.7c1-0.7,1.8-1.5,2.5-2.5l2.7,1.1c0.3,0.1,0.6,0,0.7-0.3l1.4-3.2
		C324.8,261.1,324.7,260.8,324.4,260.7z M313.3,262.3c-2.6,1-5.6-0.2-6.6-2.9c-1-2.6,0.2-5.6,2.9-6.6c2.6-1,5.6,0.2,6.6,2.9
		C317.2,258.3,315.9,261.3,313.3,262.3z	">
<animateTransform  type="rotate" fill="remove" accumulate="none" calcMode="linear" attributeName="transform" additive="replace" to="360 311.394 257.549" dur="5s" restart="always" from="0 311.394 257.549" repeatCount="indefinite">
			</animateTransform>
	</path>
	<path id="gear2" fill="#676767" d="M184.8,255.8c0-0.2-0.2-0.3-0.4-0.3l-1.7,0.2c-0.2-0.7-0.6-1.3-1-1.8l1-1.3
		c0.1-0.1,0.1-0.3-0.1-0.5l-1.6-1.2c-0.1-0.1-0.3-0.1-0.5,0.1l-1,1.3c-0.6-0.3-1.3-0.5-2.1-0.6l-0.2-1.7c0-0.2-0.2-0.3-0.4-0.3
		l-2,0.3c-0.2,0-0.3,0.2-0.3,0.4l0.2,1.7c-0.7,0.2-1.3,0.6-1.9,1.1l-1.4-1.1c-0.1-0.1-0.3-0.1-0.5,0.1l-1.2,1.6
		c-0.1,0.1-0.1,0.3,0.1,0.5l1.4,1.1c-0.3,0.6-0.5,1.3-0.5,2l-1.8,0.2c-0.2,0-0.3,0.2-0.3,0.4l0.3,2c0,0.2,0.2,0.3,0.4,0.3l1.8-0.2
		c0.2,0.7,0.6,1.3,1.1,1.9l-1.1,1.4c-0.1,0.1-0.1,0.3,0.1,0.5l1.6,1.2c0.1,0.1,0.3,0.1,0.5-0.1l1.1-1.4c0.6,0.3,1.3,0.5,2,0.6
		l0.2,1.7c0,0.2,0.2,0.3,0.4,0.3l2-0.3c0.2,0,0.3-0.2,0.3-0.4l-0.2-1.7c0.7-0.2,1.3-0.6,1.8-1l1.4,1c0.1,0.1,0.3,0.1,0.5-0.1
		l1.2-1.6c0.1-0.1,0.1-0.3-0.1-0.5l-1.3-1c0.3-0.6,0.5-1.3,0.6-2.1l1.7-0.2c0.2,0,0.3-0.2,0.3-0.4L184.8,255.8z M177.3,260.8
		c-1.6,0.2-3.2-1-3.4-2.6c-0.2-1.6,1-3.1,2.6-3.4c1.6-0.2,3.2,1,3.4,2.6C180.1,259.1,179,260.6,177.3,260.8z	">
<animateTransform  type="rotate" fill="remove" accumulate="none" calcMode="linear" attributeName="transform" additive="replace" to="0 176.949 257.835" dur="5s" restart="always" from="360 176.949 257.835" repeatCount="indefinite">
			</animateTransform>
	</path>
	<path id="gear1" fill="#676767" d="M174,246l-2.6-1.1c0.2-1.2,0.3-2.4,0.1-3.7l2.7-1.1c0.3-0.1,0.4-0.4,0.3-0.7l-1.3-3.2
		c-0.1-0.3-0.4-0.4-0.7-0.3l-2.7,1.1c-0.7-1-1.5-1.9-2.5-2.6l1.1-2.7c0.1-0.3,0-0.6-0.3-0.7l-3.2-1.4c-0.3-0.1-0.6,0-0.7,0.3
		l-1.1,2.7c-1.2-0.2-2.4-0.3-3.6-0.1l-1.1-2.7c-0.1-0.3-0.4-0.4-0.7-0.3l-3.2,1.3c-0.3,0.1-0.4,0.4-0.3,0.7l1.1,2.7
		c-1,0.7-1.9,1.6-2.6,2.6l-2.8-1.2c-0.3-0.1-0.6,0-0.7,0.3l-1.4,3.2c-0.1,0.3,0,0.6,0.3,0.7l2.8,1.2c-0.2,1.1-0.2,2.3,0,3.5
		l-2.8,1.1c-0.3,0.1-0.4,0.4-0.3,0.7l1.3,3.2c0.1,0.3,0.4,0.4,0.7,0.3l2.8-1.1c0.7,1,1.6,1.9,2.5,2.6l-1.2,2.8
		c-0.1,0.3,0,0.6,0.3,0.7l3.2,1.4c0.3,0.1,0.6,0,0.7-0.3l1.2-2.8c1.2,0.2,2.4,0.2,3.6,0l1.1,2.8c0.1,0.3,0.4,0.4,0.7,0.3l3.2-1.3
		c0.3-0.1,0.4-0.4,0.3-0.7l-1.1-2.7c1-0.7,1.8-1.5,2.5-2.5l2.7,1.1c0.3,0.1,0.6,0,0.7-0.3l1.4-3.2C174.4,246.4,174.2,246.1,174,246z
		 M162.9,247.6c-2.6,1-5.6-0.2-6.6-2.9c-1-2.6,0.2-5.6,2.9-6.6c2.6-1,5.6,0.2,6.6,2.9C166.8,243.6,165.5,246.6,162.9,247.6z	">
<animateTransform  type="rotate" fill="remove" accumulate="none" calcMode="linear" attributeName="transform" additive="replace" to="360 160.958 242.822" dur="5s" restart="always" from="0 160.958 242.822" repeatCount="indefinite">
			</animateTransform>
	</path>
</g>
</svg>
